<svg width="120" height="105" viewBox="0 0 160 151" fill="none" xmlns="http://www.w3.org/2000/svg">
<path d="M40 42C40 40.8954 40.8954 40 42 40H118C119.105 40 120 40.8954 120 42V108C120 109.105 119.105 110 118 110H42C40.8954 110 40 109.105 40 108V42Z" fill="white"/>
<path d="M40 42C40 40.8954 40.8954 40 42 40H118C119.105 40 120 40.8954 120 42V109C120 110.105 119.105 111 118 111H42C40.8954 111 40 110.105 40 109V42Z" fill="white"/>
<mask id="mask0_0_1" style="mask-type:luminance" maskUnits="userSpaceOnUse" x="42" y="55" width="16" height="48">
<path d="M55.8545 56.3076C54.3323 54.8455 51.9083 54.8324 50.5428 56.4417C45.3093 62.6099 42.2941 70.2838 42.0204 78.3043C41.747 86.3178 44.228 94.1582 49.0216 100.639C50.2803 102.341 52.7073 102.487 54.3262 101.123C56.0392 99.6804 56.1824 97.1139 54.9214 95.263C51.5646 90.3358 49.8423 84.5069 50.0454 78.557C50.2486 72.6004 52.3691 66.8862 56.0622 62.1777C57.4411 60.4197 57.4658 57.8553 55.8545 56.3076Z" fill="white"/>
</mask>
<g mask="url(#mask0_0_1)">
<path d="M55.8545 56.3076C54.3323 54.8455 51.9083 54.8324 50.5428 56.4417C45.3093 62.6099 42.2941 70.2838 42.0204 78.3043C41.747 86.3178 44.228 94.1582 49.0216 100.639C50.2803 102.341 52.7073 102.487 54.3262 101.123C56.0392 99.6804 56.1824 97.1139 54.9214 95.263C51.5646 90.3358 49.8423 84.5069 50.0454 78.557C50.2486 72.6004 52.3691 66.8862 56.0622 62.1777C57.4411 60.4197 57.4658 57.8553 55.8545 56.3076Z" stroke="url(#paint0_linear_0_1)" stroke-width="16"/>
</g>
<mask id="mask1_0_1" style="mask-type:luminance" maskUnits="userSpaceOnUse" x="55" y="43" width="49" height="15">
<path d="M102.91 55.5983C104.453 53.9882 104.356 51.3993 102.536 50.1112C95.9473 45.4499 87.9328 42.9338 79.6766 43.0013C71.4224 43.0688 63.4554 45.7143 56.9515 50.4804C55.1512 51.7997 55.0982 54.3919 56.6699 55.9766C58.1547 57.4737 60.5433 57.5072 62.2667 56.2923C67.3126 52.7349 73.4219 50.7651 79.7449 50.7134C86.0696 50.6617 92.2144 52.5323 97.3234 56.0083C99.0657 57.1937 101.452 57.1196 102.91 55.5983Z" fill="white"/>
</mask>
<g mask="url(#mask1_0_1)">
<path d="M102.91 55.5983C104.453 53.9882 104.356 51.3993 102.536 50.1112C95.9473 45.4499 87.9328 42.9338 79.6766 43.0013C71.4224 43.0688 63.4554 45.7143 56.9515 50.4804C55.1512 51.7997 55.0982 54.3919 56.6699 55.9766C58.1547 57.4737 60.5433 57.5072 62.2667 56.2923C67.3126 52.7349 73.4219 50.7651 79.7449 50.7134C86.0696 50.6617 92.2144 52.5323 97.3234 56.0083C99.0657 57.1937 101.452 57.1196 102.91 55.5983Z" stroke="url(#paint1_linear_0_1)" stroke-width="16"/>
</g>
<mask id="mask2_0_1" style="mask-type:luminance" maskUnits="userSpaceOnUse" x="102" y="55" width="17" height="47">
<path d="M105.723 101.069C107.345 102.429 109.772 102.278 111.027 100.573C115.805 94.0825 118.268 86.2372 117.977 78.2245C117.685 70.2044 114.652 62.5366 109.404 56.3793C108.035 54.7732 105.611 54.7916 104.093 56.2569C102.485 57.808 102.515 60.3721 103.898 62.1269C107.602 66.8277 109.736 72.5377 109.952 78.494C110.169 84.4433 108.46 90.2756 105.115 95.2097C103.858 97.0636 104.007 99.6299 105.723 101.069Z" fill="white"/>
</mask>
<g mask="url(#mask2_0_1)">
<path d="M105.723 101.069C107.345 102.429 109.772 102.278 111.027 100.573C115.805 94.0825 118.268 86.2372 117.977 78.2245C117.685 70.2044 114.652 62.5366 109.404 56.3793C108.035 54.7732 105.611 54.7916 104.093 56.2569C102.485 57.808 102.515 60.3721 103.898 62.1269C107.602 66.8277 109.736 72.5377 109.952 78.494C110.169 84.4433 108.46 90.2756 105.115 95.2097C103.858 97.0636 104.007 99.6299 105.723 101.069Z" stroke="url(#paint2_linear_0_1)" stroke-width="16"/>
</g>
<path d="M108 65.5C111.038 65.5 113.5 63.0376 113.5 60C113.5 56.9624 111.038 54.5 108 54.5C104.962 54.5 102.5 56.9624 102.5 60C102.5 63.0376 104.962 65.5 108 65.5Z" fill="#2A8D25" stroke="white"/>
<path d="M80.9261 87.2386C79.6136 87.2386 78.446 87.0256 77.4233 86.5994C76.4063 86.1676 75.608 85.5795 75.0284 84.8352C74.4489 84.0909 74.1591 83.2472 74.1591 82.304C74.1591 81.5767 74.3239 80.9091 74.6534 80.3011C74.9886 79.6875 75.4432 79.179 76.017 78.7756C76.5909 78.3665 77.233 78.1051 77.9432 77.9915V77.8722C77.0114 77.6847 76.2557 77.233 75.6761 76.517C75.0966 75.7955 74.8068 74.9574 74.8068 74.0028C74.8068 73.0994 75.071 72.2955 75.5994 71.5909C76.1278 70.8807 76.8523 70.3239 77.7727 69.9205C78.6989 69.5114 79.75 69.3068 80.9261 69.3068C82.1023 69.3068 83.1506 69.5114 84.071 69.9205C84.9972 70.3295 85.7244 70.8892 86.2528 71.5994C86.7813 72.304 87.0483 73.1051 87.054 74.0028C87.0483 74.9631 86.7528 75.8011 86.1676 76.517C85.5824 77.233 84.8324 77.6847 83.9176 77.8722V77.9915C84.6165 78.1051 85.25 78.3665 85.8182 78.7756C86.392 79.179 86.8466 79.6875 87.1818 80.3011C87.5227 80.9091 87.696 81.5767 87.7017 82.304C87.696 83.2472 87.4034 84.0909 86.8239 84.8352C86.2443 85.5795 85.4432 86.1676 84.4205 86.5994C83.4034 87.0256 82.2386 87.2386 80.9261 87.2386ZM80.9261 84.5284C81.5114 84.5284 82.0227 84.4233 82.4602 84.2131C82.8977 83.9972 83.2386 83.7017 83.483 83.3267C83.733 82.946 83.858 82.5085 83.858 82.0142C83.858 81.5085 83.7301 81.0625 83.4744 80.6761C83.2188 80.2841 82.8722 79.9773 82.4347 79.7557C81.9972 79.5284 81.4943 79.4148 80.9261 79.4148C80.3636 79.4148 79.8608 79.5284 79.4176 79.7557C78.9744 79.9773 78.625 80.2841 78.3693 80.6761C78.1193 81.0625 77.9943 81.5085 77.9943 82.0142C77.9943 82.5085 78.1165 82.946 78.3608 83.3267C78.6051 83.7017 78.9489 83.9972 79.392 84.2131C79.8352 84.4233 80.3466 84.5284 80.9261 84.5284ZM80.9261 76.7301C81.4148 76.7301 81.8494 76.6307 82.2301 76.4318C82.6108 76.233 82.9091 75.9574 83.125 75.6051C83.3409 75.2528 83.4489 74.8466 83.4489 74.3864C83.4489 73.9318 83.3409 73.5341 83.125 73.1932C82.9091 72.8466 82.6136 72.5767 82.2386 72.3835C81.8636 72.1847 81.4261 72.0852 80.9261 72.0852C80.4318 72.0852 79.9943 72.1847 79.6136 72.3835C79.233 72.5767 78.9347 72.8466 78.7188 73.1932C78.5085 73.5341 78.4034 73.9318 78.4034 74.3864C78.4034 74.8466 78.5114 75.2528 78.7273 75.6051C78.9432 75.9574 79.2415 76.233 79.6222 76.4318C80.0028 76.6307 80.4375 76.7301 80.9261 76.7301Z" fill="black"/>
<defs>
<linearGradient id="paint0_linear_0_1" x1="80" y1="43" x2="80" y2="116" gradientUnits="userSpaceOnUse">
<stop stop-color="#E8523E"/>
<stop offset="1" stop-color="#822E23"/>
</linearGradient>
<linearGradient id="paint1_linear_0_1" x1="103" y1="53" x2="56.5" y2="53.5" gradientUnits="userSpaceOnUse">
<stop stop-color="#E8D721"/>
<stop offset="1" stop-color="#E49526"/>
</linearGradient>
<linearGradient id="paint2_linear_0_1" x1="80" y1="43" x2="80" y2="116" gradientUnits="userSpaceOnUse">
<stop stop-color="#22731E"/>
<stop offset="1" stop-color="#40D938"/>
</linearGradient>
</defs>
</svg>
