<svg width="120" height="105" viewBox="0 0 160 150" fill="none" xmlns="http://www.w3.org/2000/svg">
<path d="M40 42C40 40.8954 40.8954 40 42 40H118C119.105 40 120 40.8954 120 42V108C120 109.105 119.105 110 118 110H42C40.8954 110 40 109.105 40 108V42Z" fill="white"/>
<path d="M40 42C40 40.8954 40.8954 40 42 40H118C119.105 40 120 40.8954 120 42V108C120 109.105 119.105 110 118 110H42C40.8954 110 40 109.105 40 108V42Z" fill="white"/>
<mask id="mask0_0_1" style="mask-type:luminance" maskUnits="userSpaceOnUse" x="42" y="54" width="16" height="48">
<path d="M55.8545 55.3076C54.3323 53.8455 51.9083 53.8324 50.5428 55.4417C45.3093 61.6099 42.2941 69.2838 42.0204 77.3043C41.747 85.3178 44.228 93.1582 49.0216 99.6391C50.2803 101.341 52.7073 101.487 54.3262 100.123C56.0392 98.6804 56.1824 96.1139 54.9214 94.263C51.5646 89.3358 49.8423 83.5069 50.0454 77.557C50.2486 71.6004 52.3691 65.8862 56.0622 61.1777C57.4411 59.4197 57.4658 56.8553 55.8545 55.3076Z" fill="white"/>
</mask>
<g mask="url(#mask0_0_1)">
<path d="M55.8545 55.3076C54.3323 53.8455 51.9083 53.8324 50.5428 55.4417C45.3093 61.6099 42.2941 69.2838 42.0204 77.3043C41.747 85.3178 44.228 93.1582 49.0216 99.6391C50.2803 101.341 52.7073 101.487 54.3262 100.123C56.0392 98.6804 56.1824 96.1139 54.9214 94.263C51.5646 89.3358 49.8423 83.5069 50.0454 77.557C50.2486 71.6004 52.3691 65.8862 56.0622 61.1777C57.4411 59.4197 57.4658 56.8553 55.8545 55.3076Z" stroke="url(#paint0_linear_0_1)" stroke-width="16"/>
</g>
<mask id="mask1_0_1" style="mask-type:luminance" maskUnits="userSpaceOnUse" x="55" y="42" width="49" height="15">
<path d="M102.91 54.5983C104.453 52.9882 104.356 50.3993 102.536 49.1112C95.9473 44.4499 87.9328 41.9338 79.6766 42.0013C71.4224 42.0688 63.4554 44.7143 56.9515 49.4804C55.1512 50.7997 55.0982 53.3919 56.6699 54.9766C58.1547 56.4737 60.5433 56.5072 62.2667 55.2923C67.3126 51.7349 73.4219 49.7651 79.7449 49.7134C86.0696 49.6617 92.2144 51.5323 97.3234 55.0083C99.0657 56.1937 101.452 56.1196 102.91 54.5983Z" fill="white"/>
</mask>
<g mask="url(#mask1_0_1)">
<path d="M102.91 54.5983C104.453 52.9882 104.356 50.3993 102.536 49.1112C95.9473 44.4499 87.9328 41.9338 79.6766 42.0013C71.4224 42.0688 63.4554 44.7143 56.9515 49.4804C55.1512 50.7997 55.0982 53.3919 56.6699 54.9766C58.1547 56.4737 60.5433 56.5072 62.2667 55.2923C67.3126 51.7349 73.4219 49.7651 79.7449 49.7134C86.0696 49.6617 92.2144 51.5323 97.3234 55.0083C99.0657 56.1937 101.452 56.1196 102.91 54.5983Z" stroke="url(#paint1_linear_0_1)" stroke-width="16"/>
</g>
<mask id="mask2_0_1" style="mask-type:luminance" maskUnits="userSpaceOnUse" x="102" y="54" width="17" height="47">
<path d="M105.723 100.069C107.345 101.429 109.772 101.278 111.027 99.5733C115.805 93.0825 118.268 85.2372 117.977 77.2245C117.685 69.2044 114.652 61.5366 109.404 55.3793C108.035 53.7732 105.611 53.7916 104.093 55.2569C102.485 56.808 102.515 59.3721 103.898 61.1269C107.602 65.8277 109.736 71.5377 109.952 77.494C110.169 83.4433 108.46 89.2756 105.115 94.2097C103.858 96.0636 104.007 98.6299 105.723 100.069Z" fill="white"/>
</mask>
<g mask="url(#mask2_0_1)">
<path d="M105.723 100.069C107.345 101.429 109.772 101.278 111.027 99.5733C115.805 93.0825 118.268 85.2372 117.977 77.2245C117.685 69.2044 114.652 61.5366 109.404 55.3793C108.035 53.7732 105.611 53.7916 104.093 55.2569C102.485 56.808 102.515 59.3721 103.898 61.1269C107.602 65.8277 109.736 71.5377 109.952 77.494C110.169 83.4433 108.46 89.2756 105.115 94.2097C103.858 96.0636 104.007 98.6299 105.723 100.069Z" stroke="url(#paint2_linear_0_1)" stroke-width="16"/>
</g>
<path d="M48 72.5C51.0376 72.5 53.5 70.0376 53.5 67C53.5 63.9624 51.0376 61.5 48 61.5C44.9624 61.5 42.5 63.9624 42.5 67C42.5 70.0376 44.9624 72.5 48 72.5Z" fill="#C64635" stroke="white"/>
<path d="M80.8665 87.2386C79.5938 87.2386 78.4602 87.0199 77.4659 86.5824C76.4773 86.1392 75.696 85.5312 75.1222 84.7585C74.554 83.9801 74.2614 83.0824 74.2443 82.0653H77.9602C77.983 82.4915 78.1222 82.8665 78.3778 83.1903C78.6392 83.5085 78.9858 83.7557 79.4176 83.9318C79.8494 84.108 80.3352 84.196 80.875 84.196C81.4375 84.196 81.9347 84.0966 82.3665 83.8977C82.7983 83.6989 83.1364 83.4233 83.3807 83.071C83.625 82.7187 83.7472 82.3125 83.7472 81.8523C83.7472 81.3864 83.6165 80.9744 83.3551 80.6165C83.0994 80.2528 82.7301 79.9687 82.2472 79.7642C81.7699 79.5597 81.2017 79.4574 80.5426 79.4574H78.9148V76.7472H80.5426C81.0994 76.7472 81.5909 76.6506 82.017 76.4574C82.4489 76.2642 82.7841 75.9972 83.0227 75.6562C83.2614 75.3097 83.3807 74.9062 83.3807 74.446C83.3807 74.0085 83.2756 73.625 83.0653 73.2955C82.8608 72.9602 82.571 72.6989 82.196 72.5114C81.8267 72.3239 81.3949 72.2301 80.9006 72.2301C80.4006 72.2301 79.9432 72.321 79.5284 72.5028C79.1136 72.679 78.7812 72.9318 78.5312 73.2614C78.2812 73.5909 78.1477 73.9773 78.1307 74.4205H74.5938C74.6108 73.4148 74.8977 72.5284 75.4545 71.7614C76.0114 70.9943 76.7614 70.3949 77.7045 69.9631C78.6534 69.5256 79.7244 69.3068 80.9176 69.3068C82.1222 69.3068 83.1761 69.5256 84.0795 69.9631C84.983 70.4006 85.6847 70.9915 86.1847 71.7358C86.6903 72.4744 86.9403 73.304 86.9347 74.2244C86.9403 75.2017 86.6364 76.017 86.0227 76.6705C85.4148 77.3239 84.6222 77.7386 83.6449 77.9148V78.0511C84.929 78.2159 85.9063 78.6619 86.5767 79.3892C87.2528 80.1108 87.5881 81.0142 87.5824 82.0994C87.5881 83.0938 87.3011 83.9773 86.7216 84.75C86.1477 85.5227 85.3551 86.1307 84.3438 86.5739C83.3324 87.017 82.1733 87.2386 80.8665 87.2386Z" fill="black"/>
<defs>
<linearGradient id="paint0_linear_0_1" x1="80" y1="42" x2="80" y2="115" gradientUnits="userSpaceOnUse">
<stop stop-color="#E8523E"/>
<stop offset="1" stop-color="#822E23"/>
</linearGradient>
<linearGradient id="paint1_linear_0_1" x1="103" y1="52" x2="56.5" y2="52.5" gradientUnits="userSpaceOnUse">
<stop stop-color="#E8D721"/>
<stop offset="1" stop-color="#E49526"/>
</linearGradient>
<linearGradient id="paint2_linear_0_1" x1="80" y1="42" x2="80" y2="115" gradientUnits="userSpaceOnUse">
<stop stop-color="#22731E"/>
<stop offset="1" stop-color="#40D938"/>
</linearGradient>
</defs>
</svg>
