<svg width="120" height="105" viewBox="0 0 160 150" fill="none" xmlns="http://www.w3.org/2000/svg">
<path d="M40 42C40 40.8954 40.8954 40 42 40H118C119.105 40 120 40.8954 120 42V108C120 109.105 119.105 110 118 110H42C40.8954 110 40 109.105 40 108V42Z" fill="white"/>
<path d="M40 41.9718C40 40.8828 40.8954 40 42 40H118C119.105 40 120 40.8828 120 41.9718V108.028C120 109.118 119.105 110 118 110H42C40.8954 110 40 109.118 40 108.028V41.9718Z" fill="white"/>
<mask id="mask0_0_1" style="mask-type:luminance" maskUnits="userSpaceOnUse" x="42" y="55" width="16" height="47">
<path d="M55.8545 56.0779C54.3323 54.6364 51.9083 54.6235 50.5428 56.2102C45.3093 62.2915 42.2941 69.8573 42.0204 77.7648C41.747 85.6655 44.228 93.3954 49.0216 99.785C50.2803 101.463 52.7073 101.607 54.3262 100.262C56.0392 98.8399 56.1824 96.3095 54.9214 94.4847C51.5646 89.6269 49.8423 83.8801 50.0454 78.014C50.2486 72.1413 52.3691 66.5076 56.0622 61.8654C57.4411 60.1321 57.4658 57.6038 55.8545 56.0779Z" fill="white"/>
</mask>
<g mask="url(#mask0_0_1)">
<path d="M55.8545 56.0779C54.3323 54.6364 51.9083 54.6235 50.5428 56.2102C45.3093 62.2915 42.2941 69.8573 42.0204 77.7648C41.747 85.6655 44.228 93.3954 49.0216 99.785C50.2803 101.463 52.7073 101.607 54.3262 100.262C56.0392 98.8399 56.1824 96.3095 54.9214 94.4847C51.5646 89.6269 49.8423 83.8801 50.0454 78.014C50.2486 72.1413 52.3691 66.5076 56.0622 61.8654C57.4411 60.1321 57.4658 57.6038 55.8545 56.0779Z" stroke="url(#paint0_linear_0_1)" stroke-width="16"/>
</g>
<mask id="mask1_0_1" style="mask-type:luminance" maskUnits="userSpaceOnUse" x="55" y="42" width="49" height="15">
<path d="M102.91 55.3786C104.453 53.7912 104.356 51.2388 102.536 49.9688C95.9473 45.3732 87.9328 42.8925 79.6766 42.9591C71.4224 43.0256 63.4554 45.6339 56.9515 50.3328C55.1512 51.6335 55.0982 54.1892 56.6699 55.7516C58.1547 57.2276 60.5433 57.2607 62.2667 56.0629C67.3126 52.5556 73.4219 50.6135 79.7449 50.5625C86.0696 50.5116 92.2144 52.3558 97.3234 55.7829C99.0657 56.9516 101.452 56.8785 102.91 55.3786Z" fill="white"/>
</mask>
<g mask="url(#mask1_0_1)">
<path d="M102.91 55.3786C104.453 53.7912 104.356 51.2388 102.536 49.9688C95.9473 45.3732 87.9328 42.8925 79.6766 42.9591C71.4224 43.0256 63.4554 45.6339 56.9515 50.3328C55.1512 51.6335 55.0982 54.1892 56.6699 55.7516C58.1547 57.2276 60.5433 57.2607 62.2667 56.0629C67.3126 52.5556 73.4219 50.6135 79.7449 50.5625C86.0696 50.5116 92.2144 52.3558 97.3234 55.7829C99.0657 56.9516 101.452 56.8785 102.91 55.3786Z" stroke="url(#paint1_linear_0_1)" stroke-width="16"/>
</g>
<mask id="mask2_0_1" style="mask-type:luminance" maskUnits="userSpaceOnUse" x="102" y="54" width="17" height="48">
<path d="M105.723 100.209C107.345 101.55 109.772 101.401 111.027 99.7199C115.805 93.3208 118.268 85.586 117.977 77.6861C117.685 69.779 114.652 62.2192 109.404 56.1486C108.035 54.5651 105.611 54.5833 104.093 56.0279C102.485 57.5572 102.515 60.0852 103.898 61.8153C107.602 66.4498 109.736 72.0794 109.952 77.9518C110.169 83.8173 108.46 89.5675 105.115 94.4321C103.858 96.2599 104.007 98.79 105.723 100.209Z" fill="white"/>
</mask>
<g mask="url(#mask2_0_1)">
<path d="M105.723 100.209C107.345 101.55 109.772 101.401 111.027 99.7199C115.805 93.3208 118.268 85.586 117.977 77.6861C117.685 69.779 114.652 62.2192 109.404 56.1486C108.035 54.5651 105.611 54.5833 104.093 56.0279C102.485 57.5572 102.515 60.0852 103.898 61.8153C107.602 66.4498 109.736 72.0794 109.952 77.9518C110.169 83.8173 108.46 89.5675 105.115 94.4321C103.858 96.2599 104.007 98.79 105.723 100.209Z" stroke="url(#paint2_linear_0_1)" stroke-width="16"/>
</g>
<path d="M71.5 54C74.5376 54 77 51.5376 77 48.5C77 45.4624 74.5376 43 71.5 43C68.4624 43 66 45.4624 66 48.5C66 51.5376 68.4624 54 71.5 54Z" fill="#E5A825" stroke="white"/>
<path d="M79.3964 87C78.1763 87 77.0888 86.7746 76.1335 86.3238C75.1839 85.8729 74.4301 85.2515 73.8718 84.4596C73.3137 83.6677 73.0231 82.7601 73 81.737H76.6255C76.6658 82.4249 76.9535 82.9827 77.4886 83.4104C78.0239 83.8382 78.6598 84.052 79.3964 84.052C79.9833 84.052 80.5013 83.922 80.9502 83.6619C81.4047 83.3959 81.7587 83.0289 82.0119 82.5607C82.2708 82.0867 82.4003 81.5434 82.4003 80.9306C82.4003 80.3064 82.2679 79.7572 82.0032 79.2832C81.7443 78.8092 81.3846 78.4393 80.9242 78.1734C80.4639 77.9075 79.9373 77.7717 79.3445 77.7659C78.8267 77.7659 78.3231 77.8728 77.834 78.0867C77.3506 78.3006 76.9736 78.5924 76.7032 78.9625L73.3798 78.3642L74.2171 69H85.0245V72.0693H77.2988L76.8412 76.5174H76.9448C77.2556 76.078 77.7246 75.7139 78.3519 75.4248C78.9791 75.1358 79.6812 74.9914 80.4581 74.9914C81.5227 74.9914 82.4722 75.2427 83.3067 75.7456C84.1411 76.2486 84.8 76.9393 85.2834 77.8179C85.7668 78.6907 86.0056 79.6966 85.9999 80.8353C86.0056 82.0318 85.7294 83.0954 85.1712 84.026C84.6187 84.9509 83.8447 85.6792 82.8492 86.211C81.8594 86.737 80.7084 87 79.3964 87Z" fill="black"/>
<defs>
<linearGradient id="paint0_linear_0_1" x1="80" y1="42.9578" x2="80" y2="114.93" gradientUnits="userSpaceOnUse">
<stop stop-color="#E8523E"/>
<stop offset="1" stop-color="#822E23"/>
</linearGradient>
<linearGradient id="paint1_linear_0_1" x1="103" y1="52.8169" x2="56.5002" y2="53.3241" gradientUnits="userSpaceOnUse">
<stop stop-color="#E8D721"/>
<stop offset="1" stop-color="#E49526"/>
</linearGradient>
<linearGradient id="paint2_linear_0_1" x1="80" y1="42.9578" x2="80" y2="114.93" gradientUnits="userSpaceOnUse">
<stop stop-color="#22731E"/>
<stop offset="1" stop-color="#40D938"/>
</linearGradient>
</defs>
</svg>
