<svg width="120" height="105" viewBox="0 0 160 151" fill="none" xmlns="http://www.w3.org/2000/svg">
<path d="M40 42C40 40.8954 40.8954 40 42 40H118C119.105 40 120 40.8954 120 42V108C120 109.105 119.105 110 118 110H42C40.8954 110 40 109.105 40 108V42Z" fill="white"/>

<path d="M40 42C40 40.8954 40.8954 40 42 40H118C119.105 40 120 40.8954 120 42V109C120 110.105 119.105 111 118 111H42C40.8954 111 40 110.105 40 109V42Z" fill="white"/>
<mask id="mask0_0_1" style="mask-type:luminance" maskUnits="userSpaceOnUse" x="42" y="55" width="16" height="48">
<path d="M55.8545 56.3076C54.3323 54.8455 51.9083 54.8324 50.5428 56.4417C45.3093 62.6099 42.2941 70.2838 42.0204 78.3043C41.747 86.3178 44.228 94.1582 49.0216 100.639C50.2803 102.341 52.7073 102.487 54.3262 101.123C56.0392 99.6804 56.1824 97.1139 54.9214 95.263C51.5646 90.3358 49.8423 84.5069 50.0454 78.557C50.2486 72.6004 52.3691 66.8862 56.0622 62.1777C57.4411 60.4197 57.4658 57.8553 55.8545 56.3076Z" fill="white"/>
</mask>
<g mask="url(#mask0_0_1)">
<path d="M55.8545 56.3076C54.3323 54.8455 51.9083 54.8324 50.5428 56.4417C45.3093 62.6099 42.2941 70.2838 42.0204 78.3043C41.747 86.3178 44.228 94.1582 49.0216 100.639C50.2803 102.341 52.7073 102.487 54.3262 101.123C56.0392 99.6804 56.1824 97.1139 54.9214 95.263C51.5646 90.3358 49.8423 84.5069 50.0454 78.557C50.2486 72.6004 52.3691 66.8862 56.0622 62.1777C57.4411 60.4197 57.4658 57.8553 55.8545 56.3076Z" stroke="url(#paint0_linear_0_1)" stroke-width="16"/>
</g>
<mask id="mask1_0_1" style="mask-type:luminance" maskUnits="userSpaceOnUse" x="55" y="43" width="49" height="15">
<path d="M102.91 55.5983C104.453 53.9882 104.356 51.3993 102.536 50.1112C95.9473 45.4499 87.9328 42.9338 79.6766 43.0013C71.4224 43.0688 63.4554 45.7143 56.9515 50.4804C55.1512 51.7997 55.0982 54.3919 56.6699 55.9766C58.1547 57.4737 60.5433 57.5072 62.2667 56.2923C67.3126 52.7349 73.4219 50.7651 79.7449 50.7134C86.0696 50.6617 92.2144 52.5323 97.3234 56.0083C99.0657 57.1937 101.452 57.1196 102.91 55.5983Z" fill="white"/>
</mask>
<g mask="url(#mask1_0_1)">
<path d="M102.91 55.5983C104.453 53.9882 104.356 51.3993 102.536 50.1112C95.9473 45.4499 87.9328 42.9338 79.6766 43.0013C71.4224 43.0688 63.4554 45.7143 56.9515 50.4804C55.1512 51.7997 55.0982 54.3919 56.6699 55.9766C58.1547 57.4737 60.5433 57.5072 62.2667 56.2923C67.3126 52.7349 73.4219 50.7651 79.7449 50.7134C86.0696 50.6617 92.2144 52.5323 97.3234 56.0083C99.0657 57.1937 101.452 57.1196 102.91 55.5983Z" stroke="url(#paint1_linear_0_1)" stroke-width="16"/>
</g>
<mask id="mask2_0_1" style="mask-type:luminance" maskUnits="userSpaceOnUse" x="102" y="55" width="17" height="47">
<path d="M105.723 101.069C107.345 102.429 109.772 102.278 111.027 100.573C115.805 94.0825 118.268 86.2372 117.977 78.2245C117.685 70.2044 114.652 62.5366 109.404 56.3793C108.035 54.7732 105.611 54.7916 104.093 56.2569C102.485 57.808 102.515 60.3721 103.898 62.1269C107.602 66.8277 109.736 72.5377 109.952 78.494C110.169 84.4433 108.46 90.2756 105.115 95.2097C103.858 97.0636 104.007 99.6299 105.723 101.069Z" fill="white"/>
</mask>
<g mask="url(#mask2_0_1)">
<path d="M105.723 101.069C107.345 102.429 109.772 102.278 111.027 100.573C115.805 94.0825 118.268 86.2372 117.977 78.2245C117.685 70.2044 114.652 62.5366 109.404 56.3793C108.035 54.7732 105.611 54.7916 104.093 56.2569C102.485 57.808 102.515 60.3721 103.898 62.1269C107.602 66.8277 109.736 72.5377 109.952 78.494C110.169 84.4433 108.46 90.2756 105.115 95.2097C103.858 97.0636 104.007 99.6299 105.723 101.069Z" stroke="url(#paint2_linear_0_1)" stroke-width="16"/>
</g>
<path d="M88 53.5C91.0376 53.5 93.5 51.0376 93.5 48C93.5 44.9624 91.0376 42.5 88 42.5C84.9624 42.5 82.5 44.9624 82.5 48C82.5 51.0376 84.9624 53.5 88 53.5Z" fill="#E7C423" stroke="white"/>
<path d="M80.1136 87.2387C79.2159 87.2331 78.3494 87.0825 77.5142 86.787C76.6847 86.4916 75.9403 86.0115 75.2812 85.3467C74.6222 84.6819 74.0994 83.8012 73.7131 82.7046C73.3324 81.6081 73.142 80.2615 73.142 78.6649C73.1477 77.199 73.3153 75.8893 73.6449 74.7359C73.9801 73.5768 74.4574 72.5938 75.0767 71.787C75.7017 70.9802 76.4489 70.3666 77.3182 69.9461C78.1875 69.52 79.1619 69.3069 80.2415 69.3069C81.4063 69.3069 82.4347 69.5342 83.3267 69.9887C84.2188 70.4376 84.9347 71.0484 85.4744 71.8211C86.0199 72.5939 86.3494 73.4603 86.4631 74.4206H82.8239C82.6818 73.8126 82.3835 73.3353 81.929 72.9887C81.4744 72.6421 80.9119 72.4689 80.2415 72.4689C79.1051 72.4689 78.2415 72.9632 77.6506 73.9518C77.0653 74.9404 76.767 76.2842 76.7557 77.9831H76.875C77.1364 77.466 77.4886 77.0257 77.9318 76.662C78.3807 76.2927 78.8892 76.0115 79.4574 75.8183C80.0312 75.6194 80.6364 75.52 81.2727 75.52C82.3068 75.52 83.2273 75.7643 84.0341 76.2529C84.8409 76.7359 85.4773 77.4007 85.9432 78.2473C86.4091 79.0938 86.642 80.0626 86.642 81.1535C86.642 82.3353 86.3665 83.3865 85.8153 84.3069C85.2699 85.2274 84.5057 85.949 83.5227 86.4717C82.5455 86.9887 81.4091 87.2444 80.1136 87.2387ZM80.0966 84.341C80.6648 84.341 81.1733 84.2046 81.6222 83.9319C82.071 83.6592 82.4233 83.2899 82.679 82.824C82.9347 82.3581 83.0625 81.8353 83.0625 81.2558C83.0625 80.6762 82.9347 80.1563 82.679 79.6961C82.429 79.2359 82.0824 78.8694 81.6392 78.5967C81.196 78.324 80.6903 78.1876 80.1222 78.1876C79.696 78.1876 79.3011 78.2671 78.9375 78.4262C78.5795 78.5853 78.2642 78.8069 77.9915 79.091C77.7244 79.3751 77.5142 79.7046 77.3608 80.0796C77.2074 80.449 77.1307 80.8438 77.1307 81.2643C77.1307 81.8268 77.2585 82.341 77.5142 82.8069C77.7756 83.2728 78.1278 83.645 78.571 83.9234C79.0199 84.2018 79.5284 84.341 80.0966 84.341Z" fill="black"/>
<defs>
<linearGradient id="paint0_linear_0_1" x1="80" y1="43" x2="80" y2="116" gradientUnits="userSpaceOnUse">
<stop stop-color="#E8523E"/>
<stop offset="1" stop-color="#822E23"/>
</linearGradient>
<linearGradient id="paint1_linear_0_1" x1="103" y1="53" x2="56.5" y2="53.5" gradientUnits="userSpaceOnUse">
<stop stop-color="#E8D721"/>
<stop offset="1" stop-color="#E49526"/>
</linearGradient>
<linearGradient id="paint2_linear_0_1" x1="80" y1="43" x2="80" y2="116" gradientUnits="userSpaceOnUse">
<stop stop-color="#22731E"/>
<stop offset="1" stop-color="#40D938"/>
</linearGradient>
</defs>
</svg>
