<svg width="120" height="105" viewBox="0 0 161 151" fill="none" xmlns="http://www.w3.org/2000/svg">
<path d="M40 42C40 40.8954 40.8954 40 42 40H118C119.105 40 120 40.8954 120 42V108C120 109.105 119.105 110 118 110H42C40.8954 110 40 109.105 40 108V42Z" fill="white"/>
<path d="M40 42C40 40.8954 40.8954 40 42 40H119C120.105 40 121 40.8954 121 42V109C121 110.105 120.105 111 119 111H42C40.8954 111 40 110.105 40 109V42Z" fill="white"/>
<mask id="mask0_0_1" style="mask-type:luminance" maskUnits="userSpaceOnUse" x="42" y="55" width="16" height="48">
<path d="M55.8545 56.3076C54.3323 54.8455 51.9083 54.8324 50.5428 56.4417C45.3093 62.6099 42.2941 70.2838 42.0204 78.3043C41.747 86.3178 44.228 94.1582 49.0216 100.639C50.2803 102.341 52.7073 102.487 54.3262 101.123C56.0392 99.6804 56.1824 97.1139 54.9214 95.263C51.5646 90.3358 49.8423 84.5069 50.0454 78.557C50.2486 72.6004 52.3691 66.8862 56.0622 62.1777C57.4411 60.4197 57.4658 57.8553 55.8545 56.3076Z" fill="white"/>
</mask>
<g mask="url(#mask0_0_1)">
<path d="M55.8545 56.3076C54.3323 54.8455 51.9083 54.8324 50.5428 56.4417C45.3093 62.6099 42.2941 70.2838 42.0204 78.3043C41.747 86.3178 44.228 94.1582 49.0216 100.639C50.2803 102.341 52.7073 102.487 54.3262 101.123C56.0392 99.6804 56.1824 97.1139 54.9214 95.263C51.5646 90.3358 49.8423 84.5069 50.0454 78.557C50.2486 72.6004 52.3691 66.8862 56.0622 62.1777C57.4411 60.4197 57.4658 57.8553 55.8545 56.3076Z" stroke="url(#paint0_linear_0_1)" stroke-width="16"/>
</g>
<mask id="mask1_0_1" style="mask-type:luminance" maskUnits="userSpaceOnUse" x="55" y="43" width="49" height="15">
<path d="M102.91 55.5983C104.453 53.9882 104.356 51.3993 102.536 50.1112C95.9473 45.4499 87.9328 42.9338 79.6766 43.0013C71.4224 43.0688 63.4554 45.7143 56.9515 50.4804C55.1512 51.7997 55.0982 54.3919 56.6699 55.9766C58.1547 57.4737 60.5433 57.5072 62.2667 56.2923C67.3126 52.7349 73.4219 50.7651 79.7449 50.7134C86.0696 50.6617 92.2144 52.5323 97.3234 56.0083C99.0657 57.1937 101.452 57.1196 102.91 55.5983Z" fill="white"/>
</mask>
<g mask="url(#mask1_0_1)">
<path d="M102.91 55.5983C104.453 53.9882 104.356 51.3993 102.536 50.1112C95.9473 45.4499 87.9328 42.9338 79.6766 43.0013C71.4224 43.0688 63.4554 45.7143 56.9515 50.4804C55.1512 51.7997 55.0982 54.3919 56.6699 55.9766C58.1547 57.4737 60.5433 57.5072 62.2667 56.2923C67.3126 52.7349 73.4219 50.7651 79.7449 50.7134C86.0696 50.6617 92.2144 52.5323 97.3234 56.0083C99.0657 57.1937 101.452 57.1196 102.91 55.5983Z" stroke="url(#paint1_linear_0_1)" stroke-width="16"/>
</g>
<mask id="mask2_0_1" style="mask-type:luminance" maskUnits="userSpaceOnUse" x="102" y="55" width="17" height="47">
<path d="M105.723 101.069C107.345 102.429 109.772 102.278 111.027 100.573C115.805 94.0825 118.268 86.2372 117.977 78.2245C117.685 70.2044 114.652 62.5366 109.404 56.3793C108.035 54.7732 105.611 54.7916 104.093 56.2569C102.485 57.808 102.515 60.3721 103.898 62.1269C107.602 66.8277 109.736 72.5377 109.952 78.494C110.169 84.4433 108.46 90.2756 105.115 95.2097C103.858 97.0636 104.007 99.6299 105.723 101.069Z" fill="white"/>
</mask>
<g mask="url(#mask2_0_1)">
<path d="M105.723 101.069C107.345 102.429 109.772 102.278 111.027 100.573C115.805 94.0825 118.268 86.2372 117.977 78.2245C117.685 70.2044 114.652 62.5366 109.404 56.3793C108.035 54.7732 105.611 54.7916 104.093 56.2569C102.485 57.808 102.515 60.3721 103.898 62.1269C107.602 66.8277 109.736 72.5377 109.952 78.494C110.169 84.4433 108.46 90.2756 105.115 95.2097C103.858 97.0636 104.007 99.6299 105.723 101.069Z" stroke="url(#paint2_linear_0_1)" stroke-width="16"/>
</g>
<path d="M108 103.5C111.038 103.5 113.5 101.038 113.5 98C113.5 94.9624 111.038 92.5 108 92.5C104.962 92.5 102.5 94.9624 102.5 98C102.5 101.038 104.962 103.5 108 103.5Z" fill="#39C132" stroke="white"/>
<path d="M75.0085 69.5455V87H71.3182V73.0483H71.2159L67.2188 75.554V72.2812L71.5398 69.5455H75.0085ZM86.0007 87.3835C84.5348 87.3778 83.2734 87.017 82.2166 86.3011C81.1655 85.5852 80.3558 84.5483 79.7876 83.1903C79.2251 81.8324 78.9467 80.1989 78.9524 78.2898C78.9524 76.3864 79.2337 74.7642 79.7962 73.4233C80.3643 72.0824 81.174 71.0625 82.2251 70.3636C83.282 69.6591 84.5405 69.3068 86.0007 69.3068C87.4609 69.3068 88.7166 69.6591 89.7678 70.3636C90.8246 71.0682 91.6371 72.0909 92.2053 73.4318C92.7734 74.767 93.0547 76.3864 93.049 78.2898C93.049 80.2045 92.7649 81.8409 92.1967 83.1989C91.6342 84.5568 90.8274 85.5937 89.7763 86.3097C88.7251 87.0256 87.4666 87.3835 86.0007 87.3835ZM86.0007 84.3239C87.0007 84.3239 87.799 83.821 88.3956 82.8153C88.9922 81.8097 89.2876 80.3011 89.282 78.2898C89.282 76.9659 89.1456 75.8636 88.8729 74.983C88.6058 74.1023 88.2251 73.4403 87.7308 72.9972C87.2422 72.554 86.6655 72.3324 86.0007 72.3324C85.0064 72.3324 84.2109 72.8295 83.6143 73.8239C83.0178 74.8182 82.7166 76.3068 82.7109 78.2898C82.7109 79.6307 82.8445 80.75 83.1115 81.6477C83.3842 82.5398 83.7678 83.2102 84.2621 83.6591C84.7564 84.1023 85.3359 84.3239 86.0007 84.3239Z" fill="black"/>
<defs>
<linearGradient id="paint0_linear_0_1" x1="80" y1="43" x2="80" y2="116" gradientUnits="userSpaceOnUse">
<stop stop-color="#E8523E"/>
<stop offset="1" stop-color="#822E23"/>
</linearGradient>
<linearGradient id="paint1_linear_0_1" x1="103" y1="53" x2="56.5" y2="53.5" gradientUnits="userSpaceOnUse">
<stop stop-color="#E8D721"/>
<stop offset="1" stop-color="#E49526"/>
</linearGradient>
<linearGradient id="paint2_linear_0_1" x1="80" y1="43" x2="80" y2="116" gradientUnits="userSpaceOnUse">
<stop stop-color="#22731E"/>
<stop offset="1" stop-color="#40D938"/>
</linearGradient>
</defs>
</svg>
