<svg width="120" height="105" viewBox="0 0 160 150" fill="none" xmlns="http://www.w3.org/2000/svg">
<path d="M40 42C40 40.8954 40.8954 40 42 40H118C119.105 40 120 40.8954 120 42V108C120 109.105 119.105 110 118 110H42C40.8954 110 40 109.105 40 108V42Z" fill="white"/>
<mask id="mask0_0_1" style="mask-type:luminance" maskUnits="userSpaceOnUse" x="42" y="54" width="16" height="48">
<path d="M55.8545 55.3076C54.3323 53.8455 51.9083 53.8324 50.5428 55.4417C45.3093 61.6099 42.2941 69.2838 42.0204 77.3043C41.747 85.3178 44.228 93.1582 49.0216 99.6391C50.2803 101.341 52.7073 101.487 54.3262 100.123C56.0392 98.6804 56.1824 96.1139 54.9214 94.263C51.5646 89.3358 49.8423 83.5069 50.0454 77.557C50.2486 71.6004 52.3691 65.8862 56.0622 61.1777C57.4411 59.4197 57.4658 56.8553 55.8545 55.3076Z" fill="white"/>
</mask>
<g mask="url(#mask0_0_1)">
<path d="M55.8545 55.3076C54.3323 53.8455 51.9083 53.8324 50.5428 55.4417C45.3093 61.6099 42.2941 69.2838 42.0204 77.3043C41.747 85.3178 44.228 93.1582 49.0216 99.6391C50.2803 101.341 52.7073 101.487 54.3262 100.123C56.0392 98.6804 56.1824 96.1139 54.9214 94.263C51.5646 89.3358 49.8423 83.5069 50.0454 77.557C50.2486 71.6004 52.3691 65.8862 56.0622 61.1777C57.4411 59.4197 57.4658 56.8553 55.8545 55.3076Z" stroke="url(#paint0_linear_0_1)" stroke-width="16"/>
</g>
<mask id="mask1_0_1" style="mask-type:luminance" maskUnits="userSpaceOnUse" x="55" y="42" width="49" height="15">
<path d="M102.91 54.5983C104.453 52.9882 104.356 50.3993 102.536 49.1112C95.9473 44.4499 87.9328 41.9338 79.6766 42.0013C71.4224 42.0688 63.4554 44.7143 56.9515 49.4804C55.1512 50.7997 55.0982 53.3919 56.6699 54.9766C58.1547 56.4737 60.5433 56.5072 62.2667 55.2923C67.3126 51.7349 73.4219 49.7651 79.7449 49.7134C86.0696 49.6617 92.2144 51.5323 97.3234 55.0083C99.0657 56.1937 101.452 56.1196 102.91 54.5983Z" fill="white"/>
</mask>
<g mask="url(#mask1_0_1)">
<path d="M102.91 54.5983C104.453 52.9882 104.356 50.3993 102.536 49.1112C95.9473 44.4499 87.9328 41.9338 79.6766 42.0013C71.4224 42.0688 63.4554 44.7143 56.9515 49.4804C55.1512 50.7997 55.0982 53.3919 56.6699 54.9766C58.1547 56.4737 60.5433 56.5072 62.2667 55.2923C67.3126 51.7349 73.4219 49.7651 79.7449 49.7134C86.0696 49.6617 92.2144 51.5323 97.3234 55.0083C99.0657 56.1937 101.452 56.1196 102.91 54.5983Z" stroke="url(#paint1_linear_0_1)" stroke-width="16"/>
</g>
<mask id="mask2_0_1" style="mask-type:luminance" maskUnits="userSpaceOnUse" x="102" y="54" width="17" height="47">
<path d="M105.723 100.069C107.345 101.429 109.772 101.278 111.027 99.5733C115.805 93.0825 118.268 85.2372 117.977 77.2245C117.685 69.2044 114.652 61.5366 109.404 55.3793C108.035 53.7732 105.611 53.7916 104.093 55.2569C102.485 56.808 102.515 59.3721 103.898 61.1269C107.602 65.8277 109.736 71.5377 109.952 77.494C110.169 83.4433 108.46 89.2756 105.115 94.2097C103.858 96.0636 104.007 98.6299 105.723 100.069Z" fill="white"/>
</mask>
<g mask="url(#mask2_0_1)">
<path d="M105.723 100.069C107.345 101.429 109.772 101.278 111.027 99.5733C115.805 93.0825 118.268 85.2372 117.977 77.2245C117.685 69.2044 114.652 61.5366 109.404 55.3793C108.035 53.7732 105.611 53.7916 104.093 55.2569C102.485 56.808 102.515 59.3721 103.898 61.1269C107.602 65.8277 109.736 71.5377 109.952 77.494C110.169 83.4433 108.46 89.2756 105.115 94.2097C103.858 96.0636 104.007 98.6299 105.723 100.069Z" stroke="url(#paint2_linear_0_1)" stroke-width="16"/>
</g>
<path d="M61 56.5C64.0376 56.5 66.5 54.0376 66.5 51C66.5 47.9624 64.0376 45.5 61 45.5C57.9624 45.5 55.5 47.9624 55.5 51C55.5 54.0376 57.9624 56.5 61 56.5Z" fill="#E49A26" stroke="white"/>
<path d="M72.1506 82.9318V80.0256L79.4375 68.5455H81.9432V72.5682H80.4602L75.8665 79.8381V79.9744H86.2216V82.9318H72.1506ZM80.5284 86V82.0455L80.5966 80.7585V68.5455H84.0568V86H80.5284Z" fill="black"/>
<defs>
<linearGradient id="paint0_linear_0_1" x1="80" y1="42" x2="80" y2="115" gradientUnits="userSpaceOnUse">
<stop stop-color="#E8523E"/>
<stop offset="1" stop-color="#822E23"/>
</linearGradient>
<linearGradient id="paint1_linear_0_1" x1="103" y1="52" x2="56.5" y2="52.5" gradientUnits="userSpaceOnUse">
<stop stop-color="#E8D721"/>
<stop offset="1" stop-color="#E49526"/>
</linearGradient>
<linearGradient id="paint2_linear_0_1" x1="80" y1="42" x2="80" y2="115" gradientUnits="userSpaceOnUse">
<stop stop-color="#22731E"/>
<stop offset="1" stop-color="#40D938"/>
</linearGradient>
</defs>
</svg>
