<svg width="120" height="105" viewBox="0 0 161 151" fill="none" xmlns="http://www.w3.org/2000/svg">
<path d="M40 42C40 40.8954 40.8954 40 42 40H118C119.105 40 120 40.8954 120 42V108C120 109.105 119.105 110 118 110H42C40.8954 110 40 109.105 40 108V42Z" fill="white"/>
<path d="M40 42C40 40.8954 40.8954 40 42 40H119C120.105 40 121 40.8954 121 42V109C121 110.105 120.105 111 119 111H42C40.8954 111 40 110.105 40 109V42Z" fill="white"/>
<mask id="mask0_0_1" style="mask-type:luminance" maskUnits="userSpaceOnUse" x="42" y="55" width="16" height="48">
<path d="M55.8545 56.3076C54.3323 54.8455 51.9083 54.8324 50.5428 56.4417C45.3093 62.6099 42.2941 70.2838 42.0204 78.3043C41.747 86.3178 44.228 94.1582 49.0216 100.639C50.2803 102.341 52.7073 102.487 54.3262 101.123C56.0392 99.6804 56.1824 97.1139 54.9214 95.263C51.5646 90.3358 49.8423 84.5069 50.0454 78.557C50.2486 72.6004 52.3691 66.8862 56.0622 62.1777C57.4411 60.4197 57.4658 57.8553 55.8545 56.3076Z" fill="white"/>
</mask>
<g mask="url(#mask0_0_1)">
<path d="M55.8545 56.3076C54.3323 54.8455 51.9083 54.8324 50.5428 56.4417C45.3093 62.6099 42.2941 70.2838 42.0204 78.3043C41.747 86.3178 44.228 94.1582 49.0216 100.639C50.2803 102.341 52.7073 102.487 54.3262 101.123C56.0392 99.6804 56.1824 97.1139 54.9214 95.263C51.5646 90.3358 49.8423 84.5069 50.0454 78.557C50.2486 72.6004 52.3691 66.8862 56.0622 62.1777C57.4411 60.4197 57.4658 57.8553 55.8545 56.3076Z" stroke="url(#paint0_linear_0_1)" stroke-width="16"/>
</g>
<mask id="mask1_0_1" style="mask-type:luminance" maskUnits="userSpaceOnUse" x="55" y="43" width="49" height="15">
<path d="M102.91 55.5983C104.453 53.9882 104.356 51.3993 102.536 50.1112C95.9473 45.4499 87.9328 42.9338 79.6766 43.0013C71.4224 43.0688 63.4554 45.7143 56.9515 50.4804C55.1512 51.7997 55.0982 54.3919 56.6699 55.9766C58.1547 57.4737 60.5433 57.5072 62.2667 56.2923C67.3126 52.7349 73.4219 50.7651 79.7449 50.7134C86.0696 50.6617 92.2144 52.5323 97.3234 56.0083C99.0657 57.1937 101.452 57.1196 102.91 55.5983Z" fill="white"/>
</mask>
<g mask="url(#mask1_0_1)">
<path d="M102.91 55.5983C104.453 53.9882 104.356 51.3993 102.536 50.1112C95.9473 45.4499 87.9328 42.9338 79.6766 43.0013C71.4224 43.0688 63.4554 45.7143 56.9515 50.4804C55.1512 51.7997 55.0982 54.3919 56.6699 55.9766C58.1547 57.4737 60.5433 57.5072 62.2667 56.2923C67.3126 52.7349 73.4219 50.7651 79.7449 50.7134C86.0696 50.6617 92.2144 52.5323 97.3234 56.0083C99.0657 57.1937 101.452 57.1196 102.91 55.5983Z" stroke="url(#paint1_linear_0_1)" stroke-width="16"/>
</g>
<mask id="mask2_0_1" style="mask-type:luminance" maskUnits="userSpaceOnUse" x="102" y="55" width="17" height="47">
<path d="M105.723 101.069C107.345 102.429 109.772 102.278 111.027 100.573C115.805 94.0825 118.268 86.2372 117.977 78.2245C117.685 70.2044 114.652 62.5366 109.404 56.3793C108.035 54.7732 105.611 54.7916 104.093 56.2569C102.485 57.808 102.515 60.3721 103.898 62.1269C107.602 66.8277 109.736 72.5377 109.952 78.494C110.169 84.4433 108.46 90.2756 105.115 95.2097C103.858 97.0636 104.007 99.6299 105.723 101.069Z" fill="white"/>
</mask>
<g mask="url(#mask2_0_1)">
<path d="M105.723 101.069C107.345 102.429 109.772 102.278 111.027 100.573C115.805 94.0825 118.268 86.2372 117.977 78.2245C117.685 70.2044 114.652 62.5366 109.404 56.3793C108.035 54.7732 105.611 54.7916 104.093 56.2569C102.485 57.808 102.515 60.3721 103.898 62.1269C107.602 66.8277 109.736 72.5377 109.952 78.494C110.169 84.4433 108.46 90.2756 105.115 95.2097C103.858 97.0636 104.007 99.6299 105.723 101.069Z" stroke="url(#paint2_linear_0_1)" stroke-width="16"/>
</g>
<path d="M114 83.5C117.038 83.5 119.5 81.0376 119.5 78C119.5 74.9624 117.038 72.5 114 72.5C110.962 72.5 108.5 74.9624 108.5 78C108.5 81.0376 110.962 83.5 114 83.5Z" fill="#30A32A" stroke="white"/>
<path d="M80.7301 69.3068C81.6278 69.3068 82.4915 69.4574 83.321 69.7585C84.1563 70.0597 84.9006 70.5398 85.554 71.1989C86.2131 71.858 86.733 72.733 87.1136 73.8239C87.5 74.9091 87.696 76.2415 87.7017 77.821C87.7017 79.304 87.5341 80.6278 87.1989 81.7926C86.8693 82.9517 86.3949 83.9375 85.7756 84.75C85.1563 85.5625 84.4091 86.1818 83.5341 86.608C82.6591 87.0284 81.6818 87.2386 80.6023 87.2386C79.4375 87.2386 78.4091 87.0142 77.517 86.5653C76.625 86.1108 75.9063 85.4943 75.3608 84.7159C74.821 83.9318 74.4943 83.0511 74.3807 82.0739H78.0199C78.1619 82.7102 78.4602 83.2045 78.9148 83.5568C79.3693 83.9034 79.9318 84.0767 80.6023 84.0767C81.7386 84.0767 82.6023 83.5824 83.1932 82.5938C83.7841 81.5994 84.0824 80.2386 84.0881 78.5114H83.9688C83.7074 79.0227 83.3551 79.4631 82.9119 79.8324C82.4688 80.196 81.9602 80.4773 81.3864 80.6761C80.8182 80.875 80.2131 80.9744 79.571 80.9744C78.5426 80.9744 77.625 80.733 76.8182 80.25C76.0114 79.767 75.375 79.1023 74.9091 78.2557C74.4432 77.4091 74.2102 76.4432 74.2102 75.358C74.2045 74.1875 74.4744 73.1449 75.0199 72.2301C75.5653 71.3153 76.3267 70.5994 77.304 70.0824C78.2869 69.5597 79.429 69.3011 80.7301 69.3068ZM80.7557 72.2045C80.1818 72.2045 79.6705 72.3409 79.2216 72.6136C78.7784 72.8864 78.4261 73.2528 78.1648 73.7131C77.9091 74.1733 77.7841 74.6875 77.7898 75.2557C77.7898 75.8295 77.9148 76.3466 78.1648 76.8068C78.4205 77.2614 78.767 77.625 79.2045 77.8977C79.6477 78.1648 80.1534 78.2983 80.7216 78.2983C81.1477 78.2983 81.5426 78.2187 81.9062 78.0597C82.2699 77.9006 82.5852 77.6818 82.8523 77.4034C83.125 77.1193 83.3381 76.7926 83.4915 76.4233C83.6449 76.054 83.7216 75.6619 83.7216 75.2472C83.7159 74.696 83.5852 74.1903 83.3295 73.7301C83.0739 73.2699 82.7216 72.9006 82.2727 72.6222C81.8239 72.3437 81.3182 72.2045 80.7557 72.2045Z" fill="black"/>
<defs>
<linearGradient id="paint0_linear_0_1" x1="80" y1="43" x2="80" y2="116" gradientUnits="userSpaceOnUse">
<stop stop-color="#E8523E"/>
<stop offset="1" stop-color="#822E23"/>
</linearGradient>
<linearGradient id="paint1_linear_0_1" x1="103" y1="53" x2="56.5" y2="53.5" gradientUnits="userSpaceOnUse">
<stop stop-color="#E8D721"/>
<stop offset="1" stop-color="#E49526"/>
</linearGradient>
<linearGradient id="paint2_linear_0_1" x1="80" y1="43" x2="80" y2="116" gradientUnits="userSpaceOnUse">
<stop stop-color="#22731E"/>
<stop offset="1" stop-color="#40D938"/>
</linearGradient>
</defs>
</svg>
